<svg xmlns="http://www.w3.org/2000/svg" xmlns:xlink="http://www.w3.org/1999/xlink" version="1.1" width="256" height="256" viewBox="0 0 256 256" xml:space="preserve">

<defs>
</defs>
<g style="stroke: none; stroke-width: 0; stroke-dasharray: none; stroke-linecap: butt; stroke-linejoin: miter; stroke-miterlimit: 10; fill: none; fill-rule: nonzero; opacity: 1;" transform="translate(1.4065934065934016 1.4065934065934016) scale(2.81 2.81)" >
	<path d="M 82.34 24.422 c -3.438 -5.894 -10.227 -8.968 -16.924 -7.664 l -12.918 2.515 c -2.476 0.482 -4.987 0.723 -7.498 0.723 s -5.022 -0.241 -7.498 -0.723 l -12.918 -2.515 c -6.697 -1.304 -13.487 1.77 -16.924 7.664 c -9.414 16.14 -11.362 49.12 1.076 49.12 c 5.482 0 9.372 -1.357 13.988 -5.712 c 7.119 -6.768 12.99 -9.471 22.276 -9.937 c 9.286 0.466 15.157 3.168 22.276 9.937 c 4.617 4.355 8.507 5.712 13.988 5.712 C 93.702 73.542 91.754 40.562 82.34 24.422 z M 36.854 39.882 c 0 2.239 -1.815 4.054 -4.055 4.054 h -4.175 v 4.175 c 0 2.239 -1.815 4.055 -4.055 4.055 c -2.239 0 -4.055 -1.815 -4.055 -4.055 v -4.175 H 16.34 c -2.239 0 -4.054 -1.815 -4.054 -4.054 v 0 c 0 -2.239 1.815 -4.054 4.054 -4.054 h 4.175 v -4.175 c 0 -2.239 1.815 -4.055 4.055 -4.055 c 2.239 0 4.055 1.815 4.055 4.055 v 4.175 h 4.175 C 35.039 35.828 36.854 37.643 36.854 39.882 L 36.854 39.882 z M 56.664 43.4 c -1.943 0 -3.518 -1.575 -3.518 -3.518 s 1.575 -3.518 3.518 -3.518 s 3.518 1.575 3.518 3.518 S 58.607 43.4 56.664 43.4 z M 65.43 52.167 c -1.943 0 -3.518 -1.575 -3.518 -3.518 c 0 -1.943 1.575 -3.518 3.518 -3.518 c 1.943 0 3.518 1.575 3.518 3.518 C 68.948 50.592 67.373 52.167 65.43 52.167 z M 65.43 34.633 c -1.943 0 -3.518 -1.575 -3.518 -3.518 c 0 -1.943 1.575 -3.518 3.518 -3.518 c 1.943 0 3.518 1.575 3.518 3.518 C 68.948 33.058 67.373 34.633 65.43 34.633 z M 74.197 43.4 c -1.943 0 -3.518 -1.575 -3.518 -3.518 s 1.575 -3.518 3.518 -3.518 c 1.943 0 3.518 1.575 3.518 3.518 S 76.14 43.4 74.197 43.4 z" style="stroke: none; stroke-width: 1; stroke-dasharray: none; stroke-linecap: butt; stroke-linejoin: miter; stroke-miterlimit: 10; fill: rgb(0,0,0); fill-rule: nonzero; opacity: 1;" transform=" matrix(1 0 0 1 0 0) " stroke-linecap="round" />
</g>
</svg>